<svg width="16" height="16" viewBox="0 0 16 16" fill="none" xmlns="http://www.w3.org/2000/svg">
<path d="M8 2.66669C4.01641 2.66669 0.86511 7.55507 0.733118 7.76307C0.644513 7.90173 0.644513 8.09754 0.733118 8.23621C0.86511 8.44497 4.01641 13.3334 8 13.3334C11.9836 13.3334 15.1349 8.44497 15.2669 8.23697C15.3555 8.09831 15.3555 7.9025 15.2669 7.76383C15.1349 7.55507 11.9836 2.66669 8 2.66669ZM8 12.5714C4.7937 12.5714 2.05181 8.9684 1.3723 8.00002C2.05181 7.03164 4.7937 3.42859 8 3.42859C11.2063 3.42859 13.9482 7.03164 14.6277 8.00002C13.9482 8.9684 11.2063 12.5714 8 12.5714Z" fill="#797F99" stroke="#797F99" stroke-width="0.4"/>
<path d="M8 6C6.8972 6 6 6.8972 6 8C6 9.1028 6.8972 10 8 10C9.1028 10 10 9.1028 10 8C10 6.8972 9.1028 6 8 6ZM8 9.6C7.1176 9.6 6.4 8.8824 6.4 8C6.4 7.1176 7.1176 6.4 8 6.4C8.8824 6.4 9.6 7.1176 9.6 8C9.6 8.8824 8.8824 9.6 8 9.6Z" fill="#797F99" stroke="#797F99" stroke-width="0.6"/>
</svg>
